<?xml version="1.0" standalone="no"?>
<!DOCTYPE svg PUBLIC "-//W3C//DTD SVG 20010904//EN"
 "http://www.w3.org/TR/2001/REC-SVG-20010904/DTD/svg10.dtd">
<svg version="1.0" xmlns="http://www.w3.org/2000/svg"
 width="333.000000pt" height="576.000000pt" viewBox="0 0 333 576"
 preserveAspectRatio="xMidYMid meet">
<g transform="translate(0.000000,576.000000) scale(0.100000,-0.100000)"
fill="#6494ed" stroke="none">
<path d="M1640 5629 c-55 -11 -137 -50 -170 -81 -14 -13 -39 -34 -57 -46 -40
-28 -121 -137 -166 -224 -83 -160 -86 -397 -7 -573 10 -22 21 -49 24 -61 7
-23 103 -171 144 -220 15 -18 43 -53 62 -79 19 -25 58 -63 85 -85 28 -21 65
-54 84 -73 l33 -35 -18 -34 c-10 -18 -23 -39 -29 -47 -14 -20 -95 -241 -105
-288 -5 -24 -16 -56 -24 -72 -9 -16 -18 -48 -22 -72 -3 -24 -15 -75 -25 -114
-23 -85 -26 -262 -5 -321 7 -22 19 -69 26 -106 7 -40 20 -74 31 -84 27 -24 69
-21 92 7 20 25 20 27 -4 189 -7 47 -12 144 -11 216 1 110 5 145 28 220 14 49
29 103 33 119 5 17 26 68 49 115 22 47 43 96 46 110 3 14 15 36 25 50 19 23
22 24 44 10 58 -36 303 -270 339 -324 13 -18 41 -56 63 -84 56 -70 79 -112
129 -227 45 -106 74 -247 63 -304 -20 -99 -158 -336 -228 -392 -22 -17 -86
-51 -142 -76 -83 -37 -118 -47 -192 -54 -147 -14 -265 -11 -346 10 -41 10 -95
21 -121 24 -59 8 -135 48 -205 109 -125 110 -184 209 -226 380 -23 95 -55 161
-84 172 -9 4 -32 -4 -54 -19 -47 -31 -60 -73 -60 -197 0 -116 46 -280 103
-365 49 -72 197 -232 241 -260 69 -43 159 -81 223 -92 83 -15 173 -32 215 -40
44 -9 280 21 371 48 102 30 228 81 276 113 24 15 45 28 48 28 12 0 131 90 154
117 76 86 122 166 145 251 13 48 29 101 35 117 20 50 15 221 -7 290 -11 33
-26 87 -33 120 -8 33 -22 76 -33 95 -68 125 -105 181 -147 225 -25 28 -76 86
-112 130 -36 44 -96 112 -134 151 -38 39 -78 82 -89 95 -19 23 -89 84 -128
112 -18 13 -18 15 2 83 12 38 35 101 51 141 17 39 30 82 30 95 0 13 12 59 26
103 30 98 41 248 25 355 -7 41 -16 102 -21 135 -33 218 -47 264 -115 355 -30
41 -63 87 -73 103 -14 23 -87 70 -103 66 -2 -1 -24 -5 -49 -10z m60 -188 c14
-10 36 -40 50 -67 l25 -49 0 -365 c0 -201 -3 -407 -8 -458 -7 -91 -27 -152
-48 -152 -6 0 -48 35 -95 77 -81 74 -87 83 -159 228 -64 129 -76 160 -81 220
-4 39 -13 88 -21 110 -43 122 51 346 180 430 92 61 104 63 157 26z"/>
<path d="M1610 2120 c-14 -27 -40 -444 -30 -484 5 -17 11 -52 15 -79 13 -95
80 -97 131 -4 l27 51 -13 100 c-8 56 -14 166 -14 244 l-1 144 -28 24 c-35 30
-72 31 -87 4z"/>
<path d="M2915 1763 c-39 -3 -67 -10 -80 -22 -11 -10 -40 -32 -65 -48 -25 -17
-58 -43 -75 -57 -46 -40 -211 -148 -295 -194 -41 -22 -109 -51 -150 -65 -176
-59 -204 -63 -587 -73 -190 -6 -242 -4 -313 10 -170 33 -340 74 -355 86 -5 4
-46 27 -90 51 -153 81 -236 150 -300 247 -30 46 -67 62 -97 43 -11 -7 -38 -22
-60 -33 -65 -34 -72 -60 -69 -286 1 -106 6 -216 11 -244 6 -28 10 -95 10 -149
0 -54 5 -109 11 -123 9 -19 9 -86 1 -263 -12 -289 -10 -310 31 -328 38 -16 79
-3 97 30 10 18 11 47 5 112 -7 79 -10 292 -5 414 1 25 -4 57 -11 70 -7 14 -14
66 -16 124 -2 55 -6 121 -9 147 -5 39 -2 52 15 74 12 15 19 35 16 45 -8 25 -9
102 -1 127 12 36 50 38 93 5 21 -16 52 -35 68 -43 17 -8 44 -24 60 -36 17 -11
46 -28 65 -38 19 -9 49 -26 65 -36 37 -24 94 -50 108 -50 6 0 29 -6 52 -14 22
-8 81 -20 130 -26 50 -7 104 -16 120 -22 120 -40 515 -61 622 -33 32 9 91 20
132 26 41 6 97 20 125 31 28 11 76 26 106 33 66 15 243 83 285 109 17 11 46
30 66 43 19 13 59 31 87 41 28 10 60 25 69 34 30 26 111 78 121 78 13 0 22
-381 11 -475 -5 -44 -8 -172 -7 -285 1 -113 1 -274 0 -358 -3 -125 0 -158 12
-177 31 -47 74 -41 139 19 49 47 50 82 1 135 l-35 40 -8 148 c-6 92 -5 170 1
206 7 36 7 72 1 95 -9 36 -5 110 17 302 19 176 33 427 26 473 -6 40 -13 52
-39 68 -18 10 -36 18 -42 17 -5 -1 -37 -3 -70 -5z"/>
</g>
</svg>
